# xmcd CD database file
# Copyright (C) 1993-1998 Ti Kan
# 
# Track frame offsets:
#     150
#     18180
#     34047
#     48995
#     65552
#     77285
#     98302
#     119497
#     135295
#     149587
#     175815
#     189212
#     205282
#     231270
# 
# Disc length: 3302 seconds
# 
# Revision: 1
# Processed by: cddbd v1.4b41PL1 Copyright (c) Steve Scherf et al.
# Submitted via: DiscPlay 4.0.4
# 
DISCID=ae0ce40e
DTITLE=Various Artist - Wood for Rainer
DYEAR=1900
DGENRE=
TTITLE0=Ooh la la - Billy Sed and Rainer
TTITLE1=Caddy - The Drakes
TTITLE2=Tiny Pieces - Dog and Pony Show
TTITLE3=Hot little number - Star Crunch
TTITLE4=I'm in love with a girl - 35 Summers
TTITLE5=Fishing - Greyhound Soul
TTITLE6=Red Boots - Shoebomb
TTITLE7=Wretched Song - Mary Anne
TTITLE8=The only thing that hurts now is the pain - Al Perry
TTITLE9=Minds I - Blackmoon Graffiti
TTITLE10=Lisa says - Naked Prey
TTITLE11=Leather - Howe Gelb
TTITLE12=Never look into the sun - Paula Jean Brown
TTITLE13=Top of the world - Rainer
EXTD=
EXTT0=
EXTT1=
EXTT2=
EXTT3=
EXTT4=
EXTT5=
EXTT6=
EXTT7=
EXTT8=
EXTT9=
EXTT10=
EXTT11=
EXTT12=
EXTT13=
PLAYORDER=
